<?xml version="1.0" encoding="UTF-8" standalone="no"?>
<!-- Created with Inkscape (http://www.inkscape.org/) -->

<svg
   xmlns:dc="http://purl.org/dc/elements/1.1/"
   xmlns:cc="http://creativecommons.org/ns#"
   xmlns:rdf="http://www.w3.org/1999/02/22-rdf-syntax-ns#"
   xmlns:svg="http://www.w3.org/2000/svg"
   xmlns="http://www.w3.org/2000/svg"
   xmlns:sodipodi="http://sodipodi.sourceforge.net/DTD/sodipodi-0.dtd"
   xmlns:inkscape="http://www.inkscape.org/namespaces/inkscape"
   width="210mm"
   height="297mm"
   viewBox="0 0 210 297"
   version="1.1"
   id="svg8"
   inkscape:version="0.92.2 (5c3e80d, 2017-08-06)"
   sodipodi:docname="simplexes2.svg">
  <defs
     id="defs2" />
  <sodipodi:namedview
     id="base"
     pagecolor="#ffffff"
     bordercolor="#666666"
     borderopacity="1.0"
     inkscape:pageopacity="0.0"
     inkscape:pageshadow="2"
     inkscape:zoom="1.4"
     inkscape:cx="438.37559"
     inkscape:cy="960"
     inkscape:document-units="mm"
     inkscape:current-layer="layer1"
     showgrid="false"
     inkscape:window-width="1440"
     inkscape:window-height="900"
     inkscape:window-x="0"
     inkscape:window-y="0"
     inkscape:window-maximized="0" />
  <metadata
     id="metadata5">
    <rdf:RDF>
      <cc:Work
         rdf:about="">
        <dc:format>image/svg+xml</dc:format>
        <dc:type
           rdf:resource="http://purl.org/dc/dcmitype/StillImage" />
        <dc:title></dc:title>
      </cc:Work>
    </rdf:RDF>
  </metadata>
  <g
     inkscape:label="Layer 1"
     inkscape:groupmode="layer"
     id="layer1">
    <circle
       id="path16"
       style="fill:#000000;stroke:none"
       cx="33.072918"
       cy="43.755951"
       r="0.75" />
    <path
       style="fill:none;stroke:#000000;stroke-width:0.26458332px;stroke-linecap:butt;stroke-linejoin:miter;stroke-opacity:1"
       d="m 44.903566,28.825893 8.126486,23.245535 z"
       id="path18"
       inkscape:connector-curvature="0" />
    <circle
       id="path20"
       style="fill:#000000;stroke:none"
       cx="44.903564"
       cy="28.825893"
       r="0.75" />
    <circle
       id="path22"
       style="fill:#000000;stroke:none"
       cx="53.030048"
       cy="52.071426"
       r="0.75" />
    <path
       style="fill:none;stroke:#000000;stroke-width:0.26458332px;stroke-linecap:butt;stroke-linejoin:miter;stroke-opacity:1"
       d="M 66.863973,24.857142 74.423495,49.99256 92.755252,29.01488 Z"
       id="path24"
       inkscape:connector-curvature="0" />
    <circle
       id="path26"
       style="fill:#000000;stroke:none"
       cx="66.863968"
       cy="24.857141"
       r="0.75" />
    <circle
       id="path28"
       style="fill:#000000;stroke:none"
       cx="74.423485"
       cy="49.992561"
       r="0.75" />
    <circle
       id="path30"
       style="fill:#000000;stroke:none"
       cx="92.755356"
       cy="29.014879"
       r="0.75" />
    <path
       style="fill:#b3b3b3;fill-opacity:1;stroke-width:0.18898807;stroke-miterlimit:4;stroke-dasharray:1.51190465, 1.51190465;stroke-dashoffset:0"
       d="M 74.349325,48.924776 C 74.301977,48.794847 72.69892,43.500817 70.786975,37.160268 68.197217,28.571885 67.365222,25.577014 67.524456,25.4164 c 0.159948,-0.161332 3.249504,0.274196 12.275541,1.730458 6.633951,1.070327 12.116291,2.00061 12.182971,2.06729 0.0667,0.06668 0.0392,0.239374 -0.0611,0.383757 C 91.236641,30.58469 74.87035,49.141237 74.67758,49.15 74.544389,49.1561 74.396674,49.0547 74.349325,48.924776 Z"
       id="path34"
       inkscape:connector-curvature="0" />
    <path
       style="fill:none;stroke:#000000;stroke-width:0.26458332px;stroke-linecap:butt;stroke-linejoin:miter;stroke-opacity:1"
       d="m 103.14947,47.611309 10.96131,-27.025298 8.31548,37.797618 z"
       id="path36"
       inkscape:connector-curvature="0" />
    <path
       style="fill:none;stroke:#000000;stroke-width:0.26458332px;stroke-linecap:butt;stroke-linejoin:miter;stroke-opacity:1"
       d="m 114.11078,20.586011 17.00893,20.599702 -8.69345,17.197916 z"
       id="path38"
       inkscape:connector-curvature="0" />
    <path
       style="fill:#b3b3b3;fill-opacity:1;stroke:#000000;stroke-width:0.26458332;stroke-linecap:butt;stroke-linejoin:miter;stroke-miterlimit:4;stroke-dasharray:0.52916663, 1.05833327;stroke-dashoffset:0;stroke-opacity:1"
       d="m 103.14947,47.611309 27.97024,-6.425596 z"
       id="path849"
       inkscape:connector-curvature="0" />
    <path
       style="fill:#b3b3b3;fill-opacity:1;stroke-width:0.18898807;stroke-miterlimit:4;stroke-dasharray:0.37797616, 0.75595233;stroke-dashoffset:0"
       d="m 122.45429,57.562585 c -0.002,-0.07738 -1.74943,-8.07157 -3.88243,-17.764879 -2.133,-9.693307 -3.85516,-17.718304 -3.82701,-17.833326 0.0582,-0.237821 15.64884,18.590497 15.84294,19.132996 0.0873,0.243959 -0.67777,1.957496 -2.47798,5.550093 -3.1204,6.227252 -5.64966,11.108719 -5.65552,10.915116 z m -1.87867,-13.749938 c 0.0954,0 0.17353,-0.09096 0.17353,-0.202131 0,-0.293751 -0.80483,-0.129892 -0.90868,0.184999 -0.0616,0.186944 0.009,0.2292 0.23689,0.141742 0.1786,-0.06853 0.40281,-0.12461 0.49826,-0.12461 z m 1.38649,-0.303702 c 0.16442,-0.06309 0.29894,-0.196573 0.29894,-0.296625 0,-0.262787 -0.80616,-0.105701 -0.89864,0.175104 -0.0847,0.257265 0.13168,0.301117 0.5997,0.121521 z m 1.78378,-0.43152 c 0.18036,-0.114284 0.19387,-0.20112 0.0455,-0.292788 -0.26176,-0.161774 -0.96342,0.04564 -0.96342,0.284795 0,0.220123 0.57517,0.225134 0.91787,0.008 z m 1.64124,-0.411279 c 0.0685,-0.11086 0.0799,-0.246192 0.0254,-0.300738 -0.14841,-0.148405 -0.88362,0.122883 -0.88362,0.326046 0,0.243358 0.70502,0.222567 0.85822,-0.02532 z m 1.5119,-0.377976 c 0.0685,-0.11086 0.0799,-0.246192 0.0254,-0.300738 -0.1484,-0.148405 -0.88361,0.122883 -0.88361,0.326046 0,0.243356 0.70502,0.222567 0.85822,-0.02532 z m 1.59863,-0.480118 c 0,-0.199292 -0.10277,-0.264263 -0.29894,-0.188986 -0.16442,0.06309 -0.37703,0.114712 -0.47247,0.114712 -0.0954,0 -0.17353,0.08504 -0.17353,0.18899 0,0.103941 0.21261,0.188986 0.47247,0.188986 0.30796,0 0.47247,-0.105743 0.47247,-0.303702 z m 1.5119,-0.331549 c 0,-0.172519 -0.15564,-0.227521 -0.47247,-0.166955 -0.25985,0.04968 -0.47247,0.165447 -0.47247,0.257276 0,0.09182 0.21262,0.166954 0.47247,0.166954 0.27259,0 0.47247,-0.108839 0.47247,-0.257275 z"
       id="path851"
       inkscape:connector-curvature="0" />
    <path
       style="fill:#b3b3b3;fill-opacity:1;stroke-width:0.18898807;stroke-miterlimit:4;stroke-dasharray:0.37797616, 0.75595233;stroke-dashoffset:0"
       d="m 112.92139,52.817534 c -4.98089,-2.785851 -9.125,-5.188164 -9.20912,-5.338479 -0.10057,-0.179698 1.63862,-4.692682 5.07799,-13.176803 2.87702,-7.096924 5.25599,-12.826981 5.28661,-12.733457 0.0306,0.09352 1.14507,5.118323 2.47656,11.166221 2.21532,10.062356 2.39195,11.003754 2.07989,11.085359 -0.18756,0.04905 -0.34102,0.192103 -0.34102,0.3179 0,0.135837 0.15382,0.188499 0.37877,0.129675 0.27658,-0.07233 0.40535,0.01095 0.47731,0.308686 0.42174,1.744898 2.91293,13.236483 2.87609,13.267095 -0.0258,0.02143 -4.12218,-2.240352 -9.10308,-5.026197 z M 104.95319,47.421 c 0.16441,-0.06309 0.29893,-0.196575 0.29893,-0.296627 0,-0.262787 -0.80616,-0.105699 -0.89864,0.175104 -0.0847,0.257267 0.13169,0.301117 0.59971,0.121523 z m 1.78377,-0.431523 c 0.18036,-0.114284 0.19387,-0.20112 0.0456,-0.292787 -0.26175,-0.161772 -0.96342,0.04564 -0.96342,0.284794 0,0.220123 0.57517,0.225134 0.91787,0.008 z m 1.5335,-0.391324 c 0.15291,-0.0967 0.22672,-0.227102 0.16404,-0.289784 -0.17487,-0.174871 -1.11518,0.110617 -0.99655,0.302564 0.1337,0.216331 0.4786,0.211037 0.83251,-0.01278 z m 1.61964,-0.39793 c 0.0685,-0.110858 0.0799,-0.246192 0.0254,-0.300739 -0.1484,-0.148402 -0.88361,0.122883 -0.88361,0.326049 0,0.243356 0.70502,0.222565 0.85822,-0.02532 z m 1.59863,-0.480116 c 0,-0.199292 -0.10277,-0.264266 -0.29894,-0.188989 -0.16441,0.06309 -0.37703,0.114713 -0.47247,0.114713 -0.0954,0 -0.17353,0.08504 -0.17353,0.188989 0,0.103944 0.21261,0.188989 0.47247,0.188989 0.30796,0 0.47247,-0.105746 0.47247,-0.303702 z m 1.51191,-0.331549 c 0,-0.172522 -0.15565,-0.227523 -0.47248,-0.166958 -0.25985,0.04968 -0.47247,0.16545 -0.47247,0.257276 0,0.09183 0.21262,0.166955 0.47247,0.166955 0.2726,0 0.47248,-0.108839 0.47248,-0.257273 z m 1.5119,-0.331732 c 0,-0.09182 -0.21261,-0.166947 -0.47247,-0.166947 -0.4446,0 -0.6044,0.183047 -0.36703,0.420418 0.15202,0.152027 0.8395,-0.05554 0.8395,-0.253471 z m 1.52736,-0.166947 c 0.0954,0 0.17353,-0.08505 0.17353,-0.188986 0,-0.230704 -0.88279,-0.25345 -1.02314,-0.02635 -0.14635,0.236802 0.11045,0.432398 0.41452,0.315719 0.14386,-0.0552 0.33965,-0.100372 0.43509,-0.100372 z m 1.51191,-0.377976 c 0.0954,0 0.17353,-0.09096 0.17353,-0.202131 0,-0.293751 -0.80483,-0.129892 -0.90868,0.185 -0.0616,0.186944 0.009,0.2292 0.23689,0.141739 0.1786,-0.06853 0.40281,-0.124608 0.49826,-0.124608 z"
       id="path853"
       inkscape:connector-curvature="0" />
    <circle
       id="path855"
       style="fill:#000000;stroke:none"
       cx="114.11134"
       cy="20.58601"
       r="0.75" />
    <circle
       id="path857"
       style="fill:#000000;stroke:none"
       cx="103.14991"
       cy="47.611309"
       r="0.75" />
    <circle
       id="path859"
       style="fill:#000000;stroke:none"
       cx="122.42694"
       cy="58.383629"
       r="0.75" />
    <circle
       id="path861"
       style="fill:#000000;stroke:none"
       cx="131.12044"
       cy="41.185711"
       r="0.75" />
  </g>
</svg>
